# xmcd CD database file
#
# Track frame offsets:
#	150
#	17749
#	29068
#	45372
#	55534
#	72703
#	88530
#	110327
#	123590
#	153002
#	176883
#	198553
#
# Disc length: 2863 seconds
#
# Revision: 0
# Processed by: cddbd v1.5.2PL0 Copyright (c) Steve Scherf et al.
# Submitted via: CDex 1.51
#
DISCID=a00b2d0c
DTITLE=Kansas City Jazz Orchestra - Take One
DYEAR=2004
DGENRE=Jazz
TTITLE0=Vine Street Rumble
TTITLE1=I Just Found Out About Love
TTITLE2=Take The A Train
TTITLE3=Michelle
TTITLE4=We'll Be Together Again
TTITLE5=Cute
TTITLE6=Jenny
TTITLE7=You Make Me Feel So Young
TTITLE8=Tee Pee Time
TTITLE9=Corner Pocket
TTITLE10=Come Sunday
TTITLE11=One O'Clock Jump
EXTD=YEAR: 2004
EXTT0=
EXTT1=
EXTT2=
EXTT3=
EXTT4=
EXTT5=
EXTT6=
EXTT7=
EXTT8=
EXTT9=
EXTT10=
EXTT11=
PLAYORDER=
